Coordinates
version=1
nRows=10
nColumns=63
inDegrees=yes

Units are S.I. units (second, meters, Newtons, ...)
If the header above contains a line with 'inDegrees', this indicates whether rotational values are in degrees (yes) or radians (no).

endheader
time	pelvis_tilt	pelvis_list	pelvis_rotation	pelvis_tx	pelvis_ty	pelvis_tz	hip_flexion_r	hip_adduction_r	hip_rotation_r	knee_angle_r	knee_angle_r_beta	ankle_angle_r	subtalar_angle_r	mtp_angle_r	hip_flexion_l	hip_adduction_l	hip_rotation_l	knee_angle_l	knee_angle_l_beta	ankle_angle_l	subtalar_angle_l	mtp_angle_l	L5_S1_Flex_Ext	L5_S1_Lat_Bending	L5_S1_axial_rotation	L4_L5_Flex_Ext	L4_L5_Lat_Bending	L4_L5_axial_rotation	L3_L4_Flex_Ext	L3_L4_Lat_Bending	L3_L4_axial_rotation	L2_L3_Flex_Ext	L2_L3_Lat_Bending	L2_L3_axial_rotation	L1_L2_Flex_Ext	L1_L2_Lat_Bending	L1_L2_axial_rotation	L1_T12_Flex_Ext	L1_T12_Lat_Bending	L1_T12_axial_rotation	Abs_r3	Abs_r2	Abs_r1	Abs_t1	Abs_t2	neck_flexion	neck_bending	neck_rotation	arm_flex_r	arm_add_r	arm_rot_r	elbow_flex_r	pro_sup_r	wrist_flex_r	wrist_dev_r	arm_flex_l	arm_add_l	arm_rot_l	elbow_flex_l	pro_sup_l	wrist_flex_l	wrist_dev_l
      0.03333333	     -5.52646220	     -0.91326036	      1.76353954	     -2.49911257	      0.89863964	      0.39478680	     12.14815812	     -3.58378511	    -22.70795118	     17.61962154	      0.30752041	     12.68676585	     -5.87706095	      0.00000000	     13.21146333	     -2.61100262	     -2.26033834	     16.06701254	      0.28042227	     12.26699123	     -9.40290606	      0.00000000	      0.01377945	      0.07360527	     -0.10963830	      0.02558982	      0.09789500	     -0.11649070	      0.02263826	      0.17896384	     -0.11649070	      0.01574854	      0.17896384	     -0.09593351	      0.01279560	      0.15009586	     -0.08908112	      0.00787358	      0.11401456	     -0.08222873	      0.09842525	      0.83263749	     -0.60977535	      0.00000000	      0.00000000	      0.00000000	      0.00000000	      0.00000001	     -3.31023921	    -12.40027577	     21.18450673	     37.11917338	     63.99921026	      0.00000000	      4.30143429	      1.88564053	    -14.52520217	     37.08298799	     32.15856703	     63.74820818	      0.00000000	      4.30143429
      0.06666667	     -5.86125024	     -0.92817355	      1.81982872	     -2.50014248	      0.89876512	      0.39319205	     12.54473054	     -3.72138815	    -20.63554223	     18.77591705	      0.32770157	     12.36788207	     -6.74558233	      0.00000000	     13.81200716	     -2.48888920	     -2.85080049	     16.36756424	      0.28566789	     11.87870272	     -9.46634060	      0.00000000	      0.01337466	      0.09412238	     -0.01986909	      0.02483807	      0.12518276	     -0.02111091	      0.02197322	      0.22884915	     -0.02111091	      0.01528590	      0.22884915	     -0.01738545	      0.01241971	      0.19193435	     -0.01614364	      0.00764228	      0.14579556	     -0.01490182	      0.09553384	      1.06473116	     -0.11050592	      0.00000000	      0.00000000	      0.00000000	      0.00000000	      0.00000001	     -2.82647820	    -12.21236209	     20.94410278	     35.69174684	     63.99294129	      0.00000000	      4.31897895	      2.44745366	    -14.35455862	     37.27517358	     32.10857276	     63.79542304	      0.00000000	      4.31897895
      0.10000000	     -6.16189160	     -0.88966177	      1.37510062	     -2.50110370	      0.89885521	      0.39265242	     13.01880952	     -3.18489489	    -15.33252442	     19.34454767	      0.33762605	     10.64213922	    -12.13707821	      0.00000000	     14.18239343	     -2.51528108	     -4.29972695	     16.42888479	      0.28673813	     11.70224833	     -8.87154876	      0.00000000	      0.01237950	      0.09770819	      0.14317965	      0.02298996	      0.12995190	      0.15212838	      0.02033827	      0.23756770	      0.15212838	      0.01414853	      0.23756770	      0.12528219	      0.01149560	      0.19924655	      0.11633346	      0.00707364	      0.15134999	      0.10738474	      0.08842551	      1.10529463	      0.79632225	      0.00000000	      0.00000000	      0.00000000	      0.00000000	      0.00000001	     -2.81302474	    -11.91526961	     19.65916106	     35.27268699	     63.83858936	      0.00000000	      4.38535256	      3.02970477	    -14.49232638	     38.21002897	     32.30910615	     63.98486411	      0.00000000	      4.38535256
      0.13333333	     -6.30424119	     -1.06675711	      1.38468048	     -2.50178052	      0.89907906	      0.39086413	     13.01434481	     -3.08482275	    -14.54812661	     19.48489436	      0.34007556	     10.37477418	    -11.98181045	      0.00000000	     14.62329349	     -2.58418064	     -4.63680547	     16.87181799	      0.29446877	     11.70110041	     -9.01526494	      0.00000000	      0.01041341	      0.11527128	      0.15931796	      0.01933875	      0.15331081	      0.16927533	      0.01710820	      0.28027060	      0.16927533	      0.01190149	      0.28027060	      0.13940321	      0.00966990	      0.23506120	      0.12944584	      0.00595023	      0.17855522	      0.11948847	      0.07438198	      1.30397181	      0.88607869	      0.00000000	      0.00000000	      0.00000000	      0.00000000	      0.00000001	     -2.57887202	    -11.85820658	     19.36953790	     34.70486991	     63.80823444	      0.00000000	      4.39346661	      3.26739741	    -14.41223734	     38.16545116	     32.24941088	     63.98333290	      0.00000000	      4.39346661
      0.16666667	     -6.29599489	     -1.29131538	      1.16991128	     -2.50218432	      0.89940901	      0.38904484	     12.89799466	     -2.87304929	    -13.84385427	     19.27545139	      0.33642009	     10.05215480	    -12.04066667	      0.00000000	     14.86018125	     -2.75008841	     -4.99956749	     17.33797415	      0.30260473	     11.95095764	     -9.23539679	      0.00000000	      0.00820455	      0.12143536	      0.14860186	      0.01523667	      0.16150902	      0.15788948	      0.01347925	      0.29525792	      0.15788948	      0.00937698	      0.29525792	      0.13002663	      0.00761874	      0.24763098	      0.12073901	      0.00468808	      0.18810337	      0.11145139	      0.05860426	      1.37370103	      0.82647896	      0.00000000	      0.00000000	      0.00000000	      0.00000000	      0.00000001	     -2.20537378	    -11.72764196	     19.09601236	     34.02148326	     63.77203840	      0.00000000	      4.40495854	      3.28106428	    -14.38443907	     37.95110472	     32.12513245	     63.95604832	      0.00000000	      4.40495854
      0.20000000	     -6.10872858	     -1.59302707	      1.03339459	     -2.50205804	      0.89997206	      0.38644480	     12.50943760	     -2.62341837	    -13.42876834	     18.73759214	      0.32703268	      9.82255127	    -12.01394557	      0.00000000	     14.79384735	     -2.92756180	     -5.11540435	     17.62118169	      0.30754764	     12.23307780	     -9.40399610	      0.00000000	      0.00980563	      0.12265490	      0.04026473	      0.01821003	      0.16313102	      0.04278127	      0.01610966	      0.29822314	      0.04278127	      0.01120685	      0.29822314	      0.03523163	      0.00910550	      0.25011788	      0.03271509	      0.00560293	      0.18999245	      0.03019854	      0.07004061	      1.38749681	      0.22394032	      0.00000000	      0.00000000	      0.00000000	      0.00000000	      0.00000001	     -1.50347698	    -11.61494384	     19.39078691	     32.99800493	     63.82256145	      0.00000000	      4.41504276	      2.97002400	    -14.42309206	     37.53742844	     31.96466644	     63.89759197	      0.00000000	      4.41504276
      0.23333333	     -5.77787843	     -2.06201327	      1.30620411	     -2.50148638	      0.90072596	      0.38247256	     11.78673753	     -2.27050925	    -13.46957066	     17.86106545	      0.31173440	      9.36651365	    -12.28144701	      0.00000000	     14.59911887	     -3.10285452	     -4.53222801	     17.88062569	      0.31207579	     12.54237273	     -9.78224833	      0.00000000	      0.01169453	      0.12562336	     -0.25721394	      0.02171791	      0.16707907	     -0.27328981	      0.01921294	      0.30544065	     -0.27328981	      0.01336568	      0.30544065	     -0.22506220	      0.01085954	      0.25617116	     -0.20898633	      0.00668225	      0.19459059	     -0.19291045	      0.08353286	      1.42107661	     -1.43054677	      0.00000000	      0.00000000	      0.00000000	      0.00000000	      0.00000001	      0.42015280	    -12.43170481	     25.72635746	     31.33408094	     64.66341751	      0.00000000	      4.47891747	      1.56983598	    -13.99150303	     33.26112945	     32.10011134	     63.31272829	      0.00000000	      4.47891747
      0.26666667	     -5.34655689	     -2.41855774	      1.48687214	     -2.50029635	      0.90156301	      0.37784290	     10.93701456	     -2.14936517	    -13.99981310	     17.08162540	      0.29813060	      9.27491551	    -11.63926291	      0.00000000	     14.13431081	     -3.09236957	     -3.84276770	     17.92550979	      0.31285917	     12.67163403	    -10.48148166	      0.00000000	      0.01129885	      0.11082543	     -0.56537687	      0.02098310	      0.14739782	     -0.60071293	      0.01856288	      0.26946095	     -0.60071293	      0.01291346	      0.26946095	     -0.49470476	      0.01049211	      0.22599522	     -0.45936871	      0.00645616	      0.17166859	     -0.42403265	      0.08070656	      1.25367942	     -3.14445655	      0.00000000	      0.00000000	      0.00000000	      0.00000000	      0.00000001	      2.53860809	    -12.96828636	     32.31888597	     29.44344806	     65.29555521	      0.00000000	      4.55057225	      0.10426690	    -13.61629761	     29.41547867	     32.28608634	     63.00385966	      0.00000000	      4.55057225
      0.30000000	     -4.95661797	     -2.69505503	      1.97882133	     -2.49840118	      0.90213097	      0.37220977	      9.96951588	     -2.15602432	    -14.86716649	     16.22967375	      0.28326124	      9.16713214	    -11.15078355	      0.00000000	     13.73608697	     -2.90178115	     -2.83329849	     18.04287329	      0.31490755	     12.91236375	    -10.98446288	      0.00000000	      0.01223439	      0.09427575	     -0.90162020	      0.02272048	      0.12538675	     -0.95797147	      0.02009987	      0.22922206	     -0.95797147	      0.01398268	      0.22922206	     -0.78891768	      0.01136085	      0.19224711	     -0.73256642	      0.00699073	      0.14603314	     -0.67621515	      0.08738899	      1.06646616	     -5.01454109	      0.00000000	      0.00000000	      0.00000000	      0.00000000	      0.00000001	      4.37599586	    -13.37185435	     38.29449678	     28.07375648	     65.75515688	      0.00000000	      4.60573645	     -1.30360879	    -13.30337822	     26.17610332	     32.58821096	     62.85029468	      0.00000000	      4.60573645
      0.33333333	     -4.64549759	     -2.77961828	      2.45139135	     -2.49563670	      0.90238255	      0.36603980	      9.10157354	     -2.40645385	    -15.77129856	     15.61670699	      0.27256296	      9.37637417	    -10.50385578	      0.00000000	     13.26626247	     -2.47851992	     -1.86894798	     17.99778270	      0.31412057	     13.14738198	    -11.36429950	      0.00000000	      0.01364298	      0.07172906	     -1.16647550	      0.02533638	      0.09539966	     -1.23938022	      0.02241405	      0.17440205	     -1.23938022	      0.01559256	      0.17440205	     -1.02066607	      0.01266887	      0.14626991	     -0.94776135	      0.00779560	      0.11110832	     -0.87485663	      0.09745045	      0.81141353	     -6.48758681	      0.00000000	      0.00000000	      0.00000000	      0.00000000	      0.00000001	      5.72543796	    -13.63757635	     42.90126824	     27.12164676	     65.82178104	      0.00000000	      4.65455284	     -2.55540484	    -13.06088016	     23.64708619	     32.97575913	     62.86810090	      0.00000000	      4.65455284
